<?xml version="1.0" standalone="no"?>
<!DOCTYPE svg PUBLIC "-//W3C//DTD SVG 20010904//EN"
 "http://www.w3.org/TR/2001/REC-SVG-20010904/DTD/svg10.dtd">
<svg version="1.0" xmlns="http://www.w3.org/2000/svg"
 width="700.000000pt" height="700.000000pt" viewBox="0 0 700.000000 700.000000"
 preserveAspectRatio="xMidYMid meet">
<metadata>
Created by potrace 1.11, written by Peter Selinger 2001-2013
</metadata>
<g transform="translate(0.000000,700.000000) scale(0.100000,-0.100000)"
fill="#000000" stroke="none">
<path d="M3158 6995 c-2 -2 -34 -6 -73 -9 -141 -14 -281 -31 -315 -41 -8 -2
-31 -6 -50 -9 -62 -9 -252 -56 -355 -88 -200 -61 -440 -164 -623 -268 -309
-175 -597 -437 -785 -713 -58 -84 -147 -252 -178 -334 -18 -47 -29 -63 -44
-64 -11 -1 -99 -2 -195 -4 -200 -3 -258 -15 -343 -72 -96 -64 -157 -152 -183
-262 -18 -74 -16 -350 2 -418 40 -152 139 -257 293 -310 34 -12 95 -17 241
-19 107 -1 198 -3 201 -3 4 -1 10 -13 14 -28 9 -39 84 -196 134 -282 167 -285
521 -623 831 -793 113 -62 130 -73 130 -82 0 -4 -15 -34 -34 -65 -118 -195
-232 -495 -252 -661 -3 -19 -6 -42 -9 -50 -32 -110 -37 -486 -9 -646 41 -233
99 -421 184 -594 56 -114 138 -252 184 -311 12 -15 30 -39 41 -55 11 -15 31
-42 44 -58 28 -35 244 -251 281 -281 60 -48 171 -126 246 -172 86 -54 287
-153 307 -153 7 0 17 -4 22 -9 8 -7 121 -48 160 -57 6 -2 46 -12 90 -23 156
-40 290 -55 500 -55 169 0 355 8 415 19 8 1 42 6 75 11 33 4 62 8 65 9 3 0 27
4 53 9 27 4 59 10 70 12 12 3 36 7 52 10 17 3 57 12 90 21 33 8 67 16 75 18 8
2 61 18 117 35 612 185 1125 544 1424 996 74 111 172 304 185 362 1 8 5 17 8
20 4 3 93 7 199 7 238 2 293 16 394 97 73 58 127 143 152 242 6 21 9 122 8
225 l-3 186 -35 75 c-39 82 -116 168 -180 200 -93 48 -125 53 -331 54 l-198 1
-22 55 c-68 173 -194 381 -317 525 -78 90 -277 280 -341 325 -19 13 -46 35
-60 47 l-24 22 81 83 c45 46 91 94 103 108 12 14 29 34 38 45 112 131 261 382
301 507 7 21 17 41 23 44 6 4 95 8 197 9 114 1 203 7 231 14 149 42 265 161
305 310 20 74 15 408 -6 461 -43 103 -92 167 -171 220 -94 63 -144 73 -365 74
l-191 1 -47 107 c-116 267 -299 510 -545 723 -92 81 -106 91 -255 192 -144 98
-180 107 -233 60 l-22 -21 -72 35 c-170 81 -173 83 -170 108 5 32 -16 77 -43
95 -36 23 -280 103 -418 136 -137 33 -316 65 -422 76 -38 3 -79 9 -90 11 -21
5 -552 12 -557 8z"/>
</g>
</svg>
